<svg width="38" height="38" fill="none" xmlns="http://www.w3.org/2000/svg"><path d="M36.345 8.176l-.921-.288a2.918 2.918 0 00-.749-.115c-1.036 0-1.957.69-2.303 1.67l-.518 1.554V9.788c0-.173-.115-.346-.23-.46L22.18.172A.622.622 0 0021.778 0H3.296c-.345 0-.575.23-.575.576V2.36H.59c-.346 0-.576.23-.576.575v34.488c0 .346.23.576.575.576h27.982c.346 0 .576-.23.576-.576V35.64h2.13c.346 0 .576-.23.576-.575V27.29l1.612-2.188.058-.173 4.318-13.76c.46-1.267-.23-2.591-1.497-2.994zM22.354 1.958l7.542 7.254h-7.542V1.958zm5.642 34.89H1.166V3.513h1.555v31.552c0 .345.23.575.575.575h24.7v1.21zm2.764-2.36H3.872V1.152h17.33v8.636c0 .345.23.576.576.576h8.982v4.318l-2.706 8.521v.173l.115 7.312c0 .23.173.46.403.518.23.058.518 0 .634-.23l1.554-2.073v5.585zm-1.497-5.585l-.115-4.779 2.879.921-2.764 3.858zm7.543-18.079L32.66 24.01l-3.34-1.094 4.146-13.127c.23-.633.921-1.036 1.555-.806l.92.288c.692.172 1.095.92.864 1.554z" fill="#ADC867"/><path d="M7.787 10.364h8.291c.346 0 .576-.23.576-.576V3.915c0-.345-.23-.576-.576-.576h-8.29c-.346 0-.576.23-.576.576v5.873c0 .288.288.576.575.576zm.576-5.873h7.14v4.721h-7.14V4.491zM6.636 15.776h17.503c.345 0 .576-.23.576-.576 0-.345-.23-.576-.576-.576H6.636c-.346 0-.576.23-.576.576s.23.576.576.576zM6.636 19.979h17.503c.345 0 .576-.23.576-.576 0-.345-.23-.576-.576-.576H6.636c-.346 0-.576.23-.576.576s.23.576.576.576zM6.636 24.182h17.503c.345 0 .576-.23.576-.576 0-.345-.23-.576-.576-.576H6.636c-.346 0-.576.23-.576.576 0 .345.23.576.576.576zM24.657 27.81c0-.346-.23-.577-.576-.577H6.636c-.346 0-.576.23-.576.576 0 .345.23.576.576.576h17.503c.288 0 .518-.288.518-.576zM26.557 31.436h-8.694c-.345 0-.576.23-.576.576s.23.576.576.576H26.5c.346 0 .576-.23.576-.576 0-.345-.23-.576-.518-.576z" fill="#ADC867"/></svg>