<svg width="189" height="204" fill="none" xmlns="http://www.w3.org/2000/svg"><g clip-path="url(#clip0)" fill="#55407D"><path d="M185.85 146.341a3.05 3.05 0 00-2.227.987 3.494 3.494 0 00-.923 2.384v47.195h-9.449v-37.082c0-2.682-.996-5.255-2.768-7.151-1.772-1.897-4.176-2.962-6.682-2.962h-18.9c-2.506 0-4.91 1.065-6.682 2.962-1.772 1.896-2.768 4.469-2.768 7.151v26.969c0 .894.332 1.751.923 2.383a3.047 3.047 0 002.227.988c.836 0 1.637-.355 2.228-.988.59-.632.922-1.489.922-2.383v-26.969c0-.894.332-1.752.923-2.384a3.05 3.05 0 012.227-.987h18.9a3.05 3.05 0 012.227.987c.591.632.923 1.49.923 2.384v13.484h-6.3c-.836 0-1.637.355-2.227.988a3.492 3.492 0 00-.923 2.383c0 .894.332 1.752.923 2.384.59.632 1.391.987 2.227.987h6.3v16.856H56.703v-26.005c0-.894-.332-1.751-.922-2.383a3.046 3.046 0 00-2.228-.988c-.835 0-1.636.355-2.227.988a3.493 3.493 0 00-.923 2.383v29.376c0 .894.332 1.752.923 2.384a3.05 3.05 0 002.227.987H185.85a3.05 3.05 0 002.228-.987c.59-.632.922-1.49.922-2.384v-50.566c0-.894-.332-1.752-.922-2.384a3.05 3.05 0 00-2.228-.987zM188.972 72.177a3.534 3.534 0 00-.238-1.325c-.162-.42-.403-.8-.707-1.116L121.878 2.314a3.04 3.04 0 00-2.17-.928 3.04 3.04 0 00-2.17.928L51.389 69.736a3.363 3.363 0 00-.707 1.116c-.163.42-.244.87-.238 1.325h-.04v9.149c0 .894.331 1.751.922 2.383.59.633 1.392.988 2.227.988.836 0 1.637-.355 2.228-.988.59-.632.922-1.49.922-2.383v-5.778H182.7v60.679c0 .894.332 1.752.923 2.384a3.05 3.05 0 002.227.987 3.05 3.05 0 002.228-.987c.59-.632.922-1.49.922-2.384v-64.05h-.028zM135.451 55.32h-31.499a3.05 3.05 0 00-2.227.988 3.494 3.494 0 00-.923 2.383v10.113H77.965l41.737-42.54 41.736 42.54h-22.837V58.692c0-.894-.332-1.751-.922-2.383a3.05 3.05 0 00-2.228-.988zm-28.349 13.484v-6.742h25.199v6.742h-25.199zm63.471 0L121.872 19.17a3.041 3.041 0 00-2.17-.927c-.808 0-1.585.332-2.171.927l-48.7 49.636h-7.403L119.702 9.41l58.273 59.395h-7.402z"/><path d="M75.602 156.454c0 3.576 1.327 7.006 3.69 9.535s5.568 3.949 8.91 3.949v13.485c0 .894.332 1.751.922 2.383.591.633 1.392.988 2.228.988h12.599c.836 0 1.637-.355 2.228-.988.59-.632.922-1.489.922-2.383v-20.227a3.5 3.5 0 00-.922-2.384 3.05 3.05 0 00-2.228-.987 3.05 3.05 0 00-2.227.987 3.496 3.496 0 00-.923 2.384v16.856h-6.3v-26.969h28.35c2.506 0 4.91-1.066 6.682-2.962 1.772-1.897 2.768-4.469 2.768-7.152v-33.71c0-2.683-.996-5.255-2.768-7.152-1.772-1.896-4.176-2.962-6.682-2.962h-15.75c-.835 0-1.636.356-2.227.988a3.492 3.492 0 00-.923 2.383c0 .894.332 1.752.923 2.384a3.05 3.05 0 002.227.987h6.3v10.114h-31.5v-10.114h12.6a3.05 3.05 0 002.228-.987c.59-.632.922-1.49.922-2.384 0-.894-.331-1.751-.922-2.383a3.048 3.048 0 00-2.228-.988H79.19L35.516 85.792a2.95 2.95 0 00-1.44-.072c-.48.096-.931.31-1.32.623a3.33 3.33 0 00-.922 1.187c-.217.466-.33.98-.331 1.502v74.164c0 .894.332 1.752.922 2.384a3.05 3.05 0 002.228.987c.292 0 .583-.044.863-.131l40.086-12.254v2.272zm37.799-10.113h-31.5v-10.114h31.5v10.114zm-25.2 16.855c-1.67 0-3.273-.71-4.454-1.975-1.181-1.264-1.845-2.979-1.845-4.767v-3.371h6.3v10.113zm37.8-53.937v33.71c0 .895-.332 1.752-.923 2.384a3.049 3.049 0 01-2.227.988h-3.15v-40.454h3.15c.835 0 1.637.356 2.227.988.591.632.923 1.49.923 2.384zm-12.6 13.484v6.742h-31.5v-6.742h31.5zm-75.598-29.24l37.799 11.555v42.112l-37.8 11.556V93.502zM22.053 122.743h-18.9a3.05 3.05 0 00-2.227.987 3.495 3.495 0 00-.922 2.384c0 .894.332 1.752.922 2.384a3.05 3.05 0 002.228.987h18.9a3.05 3.05 0 002.227-.987c.59-.632.922-1.49.922-2.384 0-.894-.331-1.752-.922-2.384a3.05 3.05 0 00-2.228-.987zM2.158 105.716l18.9 6.742c.794.282 1.66.216 2.407-.185a3.318 3.318 0 001.58-1.952 3.592 3.592 0 00-.172-2.577c-.375-.8-1.03-1.409-1.824-1.691l-18.9-6.742a2.966 2.966 0 00-2.407.184 3.317 3.317 0 00-1.58 1.953 3.59 3.59 0 00.172 2.576 3.228 3.228 0 001.824 1.692zM21.058 139.77l-18.9 6.743c-.793.282-1.45.89-1.824 1.691a3.59 3.59 0 00-.173 2.576c.264.85.833 1.552 1.58 1.953a2.968 2.968 0 002.408.185l18.9-6.743c.793-.282 1.45-.89 1.824-1.691a3.59 3.59 0 00.173-2.576 3.317 3.317 0 00-1.58-1.953 2.967 2.967 0 00-2.408-.185zM170.1 129.485a3.05 3.05 0 002.228-.987c.59-.632.922-1.49.922-2.384v-20.226c0-.895-.332-1.752-.922-2.384a3.051 3.051 0 00-2.228-.988h-25.199c-.836 0-1.637.356-2.227.988a3.493 3.493 0 00-.923 2.384v20.226c0 .894.332 1.752.923 2.384.59.632 1.391.987 2.227.987H170.1zm-22.049-20.226h18.899v13.484h-18.899v-13.484z"/></g><defs><clipPath id="clip0"><path fill="#fff" d="M0 0h189v204H0z"/></clipPath></defs></svg>