<svg width="25" height="25" fill="none" xmlns="http://www.w3.org/2000/svg"><path d="M20.798 4.347C18.89 1.585 15.865 0 12.5 0S6.11 1.585 4.202 4.347c-1.899 2.748-2.338 6.227-1.175 9.301.31.84.805 1.655 1.465 2.42l7.343 8.624a.874.874 0 001.33 0l7.341-8.622c.664-.769 1.157-1.583 1.465-2.416 1.165-3.08.727-6.559-1.173-9.307zm-.463 8.695c-.238.642-.626 1.277-1.154 1.888 0 .002-.002.003-.004.005L12.5 22.778 5.82 14.93c-.527-.61-.915-1.245-1.155-1.894-.961-2.542-.596-5.42.976-7.695 1.578-2.283 4.078-3.593 6.86-3.593s5.283 1.31 6.86 3.593c1.573 2.276 1.938 5.153.974 7.7z" fill="#413A4F"/><path d="M12.5 5.187a4.9 4.9 0 00-4.895 4.895 4.9 4.9 0 004.895 4.895 4.9 4.9 0 004.895-4.895A4.9 4.9 0 0012.5 5.187zm0 8.041a3.15 3.15 0 01-3.147-3.146A3.15 3.15 0 0112.5 6.935a3.15 3.15 0 013.147 3.147 3.15 3.15 0 01-3.147 3.146z" fill="#413A4F"/></svg>