<svg width="25" height="25" fill="none" xmlns="http://www.w3.org/2000/svg"><g clip-path="url(#clip0)" fill="#FDFDFD"><path d="M19.758 15.487c-.512-.533-1.13-.818-1.784-.818-.649 0-1.271.28-1.804.812l-1.668 1.662c-.137-.073-.274-.142-.406-.21-.19-.096-.37-.185-.522-.28-1.562-.992-2.981-2.285-4.343-3.958-.66-.833-1.102-1.535-1.424-2.247.432-.396.833-.808 1.224-1.203.148-.148.295-.301.443-.449 1.108-1.108 1.108-2.543 0-3.651l-1.44-1.44a21.948 21.948 0 01-.491-.502 24.917 24.917 0 00-.992-.981c-.512-.507-1.124-.776-1.768-.776-.643 0-1.266.27-1.794.776l-.01.01-1.794 1.81A3.86 3.86 0 00.04 6.496c-.127 1.54.327 2.976.675 3.915.855 2.306 2.132 4.443 4.037 6.732 2.31 2.76 5.091 4.94 8.268 6.475 1.213.575 2.833 1.255 4.643 1.372.11.005.227.01.332.01 1.22 0 2.243-.438 3.045-1.308.005-.011.016-.016.021-.027.274-.332.591-.633.923-.955.227-.216.46-.443.686-.68.523-.544.797-1.177.797-1.826 0-.655-.28-1.282-.813-1.81l-2.896-2.907zm1.889 5.556c-.006 0-.006.005 0 0-.206.221-.417.422-.644.643-.343.328-.691.67-1.018 1.056-.533.57-1.161.839-1.984.839-.08 0-.164 0-.243-.006-1.567-.1-3.023-.712-4.116-1.234-2.986-1.446-5.608-3.498-7.788-6.1-1.799-2.168-3.002-4.173-3.799-6.326-.49-1.314-.67-2.338-.59-3.303.052-.618.29-1.13.728-1.567l1.799-1.8c.258-.242.533-.374.802-.374.332 0 .601.2.77.37l.016.015c.322.3.628.612.95.944.163.17.332.338.501.512l1.44 1.44c.56.56.56 1.077 0 1.636-.153.153-.3.306-.453.454-.443.454-.866.876-1.325 1.288-.01.01-.02.015-.026.026-.454.454-.37.897-.274 1.198l.015.047c.375.908.903 1.762 1.705 2.78l.005.006c1.456 1.794 2.992 3.192 4.685 4.264.217.137.438.248.65.353.19.095.369.185.522.28.02.01.042.026.063.037.18.09.348.131.522.131.438 0 .713-.274.803-.364l1.804-1.804c.18-.18.464-.396.797-.396.327 0 .596.206.76.385a.52.52 0 01.01.01l2.907 2.908c.544.538.544 1.092.006 1.652zM13.51 5.947a6.69 6.69 0 013.641 1.889 6.726 6.726 0 011.89 3.64.708.708 0 00.701.591c.042 0 .08-.005.121-.01a.713.713 0 00.586-.823 8.138 8.138 0 00-2.285-4.406 8.138 8.138 0 00-4.405-2.285.716.716 0 00-.824.58.705.705 0 00.576.824zM24.971 11.028a13.389 13.389 0 00-3.762-7.255A13.389 13.389 0 0013.954.011a.71.71 0 00-.818.58.716.716 0 00.586.823 11.988 11.988 0 016.484 3.362 11.954 11.954 0 013.361 6.484.708.708 0 00.702.591c.043 0 .08-.005.122-.01a.699.699 0 00.58-.813z"/></g><defs><clipPath id="clip0"><path fill="#fff" d="M0 0h25v25H0z"/></clipPath></defs></svg>