<svg width="27" height="25" fill="none" xmlns="http://www.w3.org/2000/svg"><path d="M21.656 4.347C19.669 1.585 16.519 0 13.016 0c-3.504 0-6.653 1.585-8.64 4.347-1.978 2.748-2.435 6.227-1.224 9.301.323.84.838 1.655 1.525 2.42l7.646 8.624a.926.926 0 00.693.308c.266 0 .52-.113.693-.308l7.643-8.622c.69-.769 1.204-1.583 1.525-2.416 1.213-3.08.757-6.559-1.221-9.307zm-.483 8.695c-.248.642-.652 1.277-1.2 1.888a.032.032 0 00-.005.005l-6.952 7.843-6.957-7.848c-.549-.61-.953-1.245-1.203-1.894-1-2.542-.62-5.42 1.017-7.695 1.642-2.283 4.246-3.593 7.143-3.593 2.896 0 5.5 1.31 7.142 3.593 1.638 2.276 2.018 5.153 1.015 7.7z" fill="#FDFDFD"/><path d="M13.016 5.186c-2.81 0-5.097 2.196-5.097 4.896 0 2.699 2.286 4.895 5.097 4.895 2.81 0 5.097-2.196 5.097-4.895 0-2.7-2.287-4.896-5.097-4.896zm0 8.042c-1.807 0-3.277-1.411-3.277-3.146 0-1.736 1.47-3.147 3.277-3.147 1.807 0 3.277 1.411 3.277 3.147 0 1.735-1.47 3.146-3.277 3.146z" fill="#FDFDFD"/><path d="M0 0h26.031v25H0z"/></svg>