<svg width="25" height="25" fill="none" xmlns="http://www.w3.org/2000/svg"><g clip-path="url(#clip0)" fill="#FAFAFA"><path d="M24.12 14.472c.746-6.278-.359-10.242-2.35-12.035C18.557-.626 7.7-1.079 3.855 2.573 2.127 4.36 1.52 6.982 1.452 10.228c-.067 3.247-.146 9.33 5.522 10.98h.005l-.005 2.519s-.039 1.02.613 1.226c.746.242 1.084-.232 3.404-3.003 3.879.336 6.858-.434 7.197-.547.783-.262 5.215-.849 5.932-6.931zm-12.747 5.705s-2.455 3.061-3.219 3.856c-.25.258-.524.235-.52-.278 0-.336.02-4.183.02-4.183-4.806-1.377-4.523-6.556-4.47-9.266.051-2.71.547-4.93 2.01-6.425C8.568.718 18.085 1.425 20.51 3.704c2.965 2.628 1.91 10.053 1.916 10.306-.61 5.077-4.201 5.4-4.861 5.619-.283.094-2.903.768-6.192.548z"/><path d="M12.731 4.476c-.4 0-.4.625 0 .63 3.112.024 5.674 2.193 5.702 6.17 0 .42.615.415.61-.004h-.001c-.034-4.287-2.832-6.772-6.31-6.796z"/><path d="M16.824 10.618c-.01.414.604.434.61.014.05-2.363-1.407-4.31-4.146-4.515-.4-.03-.442.6-.042.63 2.375.18 3.626 1.801 3.578 3.87zM16.168 13.306c-.515-.298-1.039-.112-1.255.18l-.454.587c-.23.298-.66.258-.66.258-3.14-.83-3.98-4.115-3.98-4.115s-.038-.445.25-.684l.566-.469c.284-.225.463-.766.174-1.298-.77-1.393-1.288-1.873-1.552-2.242-.277-.347-.693-.425-1.127-.19h-.01c-.9.526-1.887 1.513-1.571 2.528.539 1.071 1.528 4.485 4.682 7.064 1.483 1.22 3.828 2.47 4.824 2.758l.01.015c.98.327 1.935-.698 2.444-1.626v-.008c.226-.448.151-.873-.179-1.152-.585-.57-1.468-1.2-2.162-1.606z"/><path d="M13.718 8.442c1 .058 1.486.58 1.538 1.655.02.42.628.39.61-.03-.067-1.401-.798-2.183-2.115-2.256-.4-.024-.438.607-.033.63z"/></g><defs><clipPath id="clip0"><path fill="#fff" d="M0 0h25v25H0z"/></clipPath></defs></svg>