<svg width="25" height="25" fill="none" xmlns="http://www.w3.org/2000/svg"><path d="M20.745 13.57c-.404-.51-.289-.737 0-1.193.005-.005 3.341-4.616 3.685-6.18h.002c.171-.57 0-.989-.826-.989h-2.733c-.696 0-1.017.36-1.189.762 0 0-1.391 3.331-3.36 5.49-.636.624-.93.824-1.276.824-.17 0-.437-.2-.437-.77V6.197c0-.684-.194-.989-.77-.989H9.543c-.437 0-.696.319-.696.616 0 .648.984.797 1.086 2.62v3.955c0 .867-.157 1.026-.506 1.026-.93 0-3.184-3.345-4.52-7.173-.27-.743-.534-1.043-1.235-1.043H.937c-.78 0-.937.36-.937.762 0 .71.93 4.242 4.32 8.91 2.261 3.184 5.445 4.91 8.34 4.91 1.741 0 1.954-.383 1.954-1.042 0-3.044-.158-3.331.714-3.331.404 0 1.1.2 2.725 1.736 1.857 1.822 2.163 2.638 3.202 2.638h2.733c.78 0 1.175-.384.947-1.14-.52-1.59-4.032-4.863-4.19-5.081z" fill="#FAFAFA"/></svg>