<svg width="25" height="25" fill="none" xmlns="http://www.w3.org/2000/svg"><path fill-rule="evenodd" clip-rule="evenodd" d="M20.79 4.175A11.539 11.539 0 0012.576.77C6.174.769.964 5.979.961 12.382c0 2.047.534 4.045 1.55 5.806L.864 24.206l6.156-1.614a11.6 11.6 0 005.55 1.413h.005c6.401 0 11.612-5.21 11.614-11.614a11.542 11.542 0 00-3.398-8.216zm-8.215 17.869h-.004a9.641 9.641 0 01-4.913-1.346l-.352-.21-3.654.96.975-3.563-.23-.365a9.629 9.629 0 01-1.475-5.137C2.924 7.06 7.254 2.73 12.579 2.73a9.587 9.587 0 016.825 2.83 9.596 9.596 0 012.824 6.83c-.002 5.322-4.332 9.653-9.653 9.653zm5.295-7.23c-.29-.145-1.717-.847-1.983-.944-.266-.097-.46-.145-.653.145s-.75.944-.919 1.138c-.17.194-.338.218-.628.073-.29-.146-1.226-.452-2.334-1.44-.863-.77-1.445-1.72-1.614-2.01-.17-.292-.002-.434.127-.593.314-.39.629-.8.725-.993.097-.193.049-.363-.024-.508-.072-.145-.653-1.574-.895-2.155-.235-.566-.474-.49-.653-.498-.169-.008-.362-.01-.556-.01-.193 0-.508.072-.774.363-.266.29-1.015.992-1.015 2.42 0 1.43 1.04 2.81 1.185 3.003.145.194 2.046 3.125 4.957 4.381.692.3 1.233.478 1.654.612.696.22 1.328.19 1.828.115.558-.084 1.717-.702 1.959-1.38.242-.678.242-1.259.169-1.38-.072-.121-.266-.194-.556-.339z" fill="#FAFAFA"/></svg>